<?xml version="1.0" standalone="no"?>
<!DOCTYPE svg PUBLIC "-//W3C//DTD SVG 20010904//EN"
 "http://www.w3.org/TR/2001/REC-SVG-20010904/DTD/svg10.dtd">
<svg version="1.0" xmlns="http://www.w3.org/2000/svg"
 width="2400.000000pt" height="2400.000000pt" viewBox="0 0 2400.000000 2400.000000"
 preserveAspectRatio="xMidYMid meet">
<metadata>
Created by potrace 1.16, written by Peter Selinger 2001-2019
</metadata>
<g transform="translate(0.000000,2400.000000) scale(0.100000,-0.100000)"
fill="white" stroke="none">
<path d="M0 12000 l0 -12000 12000 0 12000 0 0 12000 0 12000 -12000 0 -12000
0 0 -12000z m12495 11215 c423 -41 723 -100 924 -179 61 -25 127 -40 231 -56
706 -105 1609 -402 2008 -660 52 -34 136 -76 190 -96 285 -107 555 -286 783
-520 86 -89 202 -227 249 -297 20 -31 50 -50 155 -102 148 -72 287 -162 422
-271 99 -81 282 -266 335 -340 26 -37 51 -55 123 -91 512 -256 868 -654 1048
-1175 3 -9 39 -37 79 -63 271 -176 539 -441 703 -695 174 -271 282 -592 310
-918 l7 -84 80 -76 c183 -175 364 -422 473 -647 115 -237 179 -470 200 -729 3
-44 13 -92 21 -107 27 -54 121 -544 163 -854 60 -440 86 -807 86 -1195 0 -208
-11 -604 -19 -685 -2 -22 -7 -83 -11 -135 -9 -127 -44 -450 -52 -475 -3 -11
-14 -32 -24 -46 -16 -23 -17 -36 -10 -120 21 -231 -8 -515 -75 -735 -51 -169
-157 -404 -226 -503 -12 -17 -13 -30 -5 -59 9 -33 5 -53 -33 -162 -141 -412
-410 -1040 -633 -1475 -86 -169 -118 -205 -177 -205 -25 0 -29 -7 -69 -128
-160 -485 -488 -894 -945 -1176 l-95 -59 -32 -81 c-78 -196 -193 -399 -322
-570 -71 -95 -257 -284 -339 -345 -32 -24 -58 -47 -58 -52 0 -5 33 -9 73 -9
73 0 396 -21 527 -35 25 -3 72 -7 105 -10 1350 -114 3110 -442 4400 -821 207
-61 805 -257 805 -263 0 -3 -328 -120 -728 -260 -400 -140 -743 -260 -763
-268 l-36 -14 229 -651 c125 -358 226 -653 224 -656 -3 -2 -96 29 -208 68
-774 276 -1781 519 -2938 709 -215 36 -669 100 -815 115 -27 3 -88 10 -135 15
-111 13 -162 18 -355 36 -299 27 -501 39 -875 50 -242 7 -1004 -17 -1270 -40
-30 -2 -113 -9 -185 -15 -631 -53 -1366 -169 -1935 -306 -146 -35 -428 -108
-735 -191 -11 -3 200 216 470 486 269 269 487 492 485 495 -19 18 -532 142
-790 190 -186 35 -383 63 -630 90 -427 46 -1085 56 -1507 23 -122 -10 -230
-19 -240 -21 -10 -2 -49 -7 -88 -10 -214 -21 -619 -91 -881 -151 -171 -39
-445 -112 -453 -121 -3 -3 215 -225 484 -494 270 -270 486 -490 482 -490 -5 0
-125 31 -266 70 -661 179 -1269 299 -1896 375 -16 2 -50 6 -75 9 -647 79
-1488 117 -2085 95 -1501 -54 -3625 -449 -4929 -916 -114 -41 -210 -72 -213
-69 -3 3 97 296 221 652 125 356 223 650 219 654 -4 4 -347 126 -760 271 -414
145 -753 266 -753 269 0 6 596 203 785 259 1159 346 2944 689 4200 806 94 9
186 18 205 20 19 2 71 7 115 10 44 3 98 8 120 10 41 4 275 18 308 19 9 0 17 3
17 7 0 3 -37 35 -83 71 -100 80 -261 246 -341 351 -124 166 -254 401 -315 572
l-22 60 -122 77 c-315 198 -568 459 -746 768 -71 123 -158 322 -192 441 l-22
77 -43 7 c-23 3 -53 16 -67 29 -83 77 -547 1117 -712 1596 -47 137 -56 172
-51 209 5 38 1 51 -29 101 -120 198 -216 462 -262 719 -17 97 -25 412 -14 511
6 47 5 69 -4 80 -29 36 -37 72 -60 287 -37 354 -48 567 -49 978 -1 466 6 614
49 1015 46 424 160 1065 200 1126 8 13 15 41 15 62 0 70 29 265 56 372 90 362
281 692 576 996 122 125 128 133 128 172 0 23 7 91 16 153 81 586 429 1113
974 1475 l97 65 33 87 c179 475 542 868 1015 1101 79 39 97 53 149 117 71 89
248 265 336 335 107 86 267 187 401 252 92 45 131 70 147 93 97 145 316 379
472 503 172 138 394 264 575 327 44 16 121 55 170 87 481 313 1683 673 2345
703 104 5 138 11 200 34 213 80 569 148 870 166 63 4 117 9 120 11 7 6 721 -4
795 -12z m-2675 -20101 c318 -56 573 -222 694 -454 20 -37 36 -71 36 -74 0 -3
-73 -6 -162 -6 l-163 0 -39 77 c-88 170 -220 281 -412 344 -54 18 -92 23 -174
24 -92 0 -111 -3 -154 -25 -53 -27 -85 -61 -119 -124 -19 -36 -22 -56 -22
-168 l0 -128 -162 0 -162 0 -21 29 c-110 155 -41 324 173 430 189 93 434 120
687 75z m-3825 -34 c215 -67 375 -216 429 -399 9 -30 16 -70 16 -88 l0 -33
875 0 875 0 0 -49 c0 -81 0 -81 -106 -81 l-94 0 0 -514 c0 -503 0 -514 21
-539 11 -15 38 -31 60 -37 39 -11 40 -13 37 -48 l-3 -37 -271 -2 c-149 -1
-279 0 -291 3 -14 4 -20 14 -21 39 -1 30 2 33 35 40 22 4 50 20 70 40 l33 33
0 112 0 111 -54 -59 c-93 -99 -226 -152 -386 -152 -188 0 -343 87 -455 255
-52 79 -94 204 -102 304 l-6 80 39 -11 c21 -6 86 -11 144 -12 116 -1 177 18
233 72 96 91 69 225 -60 288 l-58 29 -257 3 -258 3 0 -521 0 -521 24 -24 c14
-14 42 -27 66 -31 40 -7 41 -8 38 -43 l-3 -36 -287 0 -288 -1 0 38 c0 35 2 38
35 44 19 3 46 15 60 26 l25 19 0 525 0 524 -170 0 -170 0 0 -505 c0 -578 -4
-552 81 -582 48 -17 50 -19 47 -53 l-3 -35 -287 -2 -288 -3 0 38 c0 36 2 40
39 51 22 6 49 23 60 38 20 25 21 38 21 354 l0 328 -37 26 c-97 66 -281 87
-369 43 -58 -28 -109 -85 -143 -157 -23 -50 -26 -67 -25 -166 0 -156 40 -276
119 -363 l34 -38 -150 -74 c-120 -60 -153 -73 -167 -64 -35 22 -134 151 -168
219 -46 93 -64 164 -64 257 0 306 294 537 655 514 114 -7 208 -27 265 -56 22
-11 42 -20 45 -20 3 0 5 56 5 125 l0 125 -777 -1 c-760 0 -777 -1 -716 -18
280 -80 431 -324 319 -515 -57 -98 -195 -194 -336 -236 -41 -12 -83 -25 -94
-29 -15 -6 -7 -17 51 -72 86 -81 144 -110 216 -110 62 0 108 16 155 56 32 27
33 27 48 9 36 -47 36 -50 -11 -102 -109 -121 -265 -179 -399 -148 -91 21 -154
65 -301 206 -145 141 -213 194 -259 206 -18 4 -25 11 -22 21 4 8 9 26 12 39 3
13 7 24 8 24 0 0 23 -7 50 -15 81 -25 193 -30 263 -11 75 19 125 49 177 106
63 70 81 121 81 225 -1 80 -4 97 -33 156 -38 78 -100 140 -180 177 -56 27 -60
27 -312 30 l-255 3 3 -518 c3 -514 3 -518 24 -540 12 -13 39 -28 60 -35 35
-10 38 -14 38 -50 l0 -38 -287 2 -288 3 -3 35 c-3 34 -1 36 48 53 83 29 80 9
80 587 l0 500 -170 0 c-129 0 -170 -3 -170 -12 0 -7 0 -240 0 -517 l0 -504 22
-24 c12 -13 39 -28 60 -35 35 -10 38 -14 38 -50 l0 -38 -290 0 -290 0 0 38 c0
36 3 40 38 50 21 7 48 22 60 34 20 22 21 34 22 213 1 105 1 200 1 213 -1 22
-2 22 -146 22 l-145 0 0 -67 c0 -87 -13 -132 -53 -185 -112 -147 -367 -167
-530 -43 -54 41 -97 121 -97 179 0 123 123 216 287 216 l63 0 0 89 c0 99 2 96
-75 100 -141 6 -267 78 -321 183 -52 102 -35 207 48 294 175 185 523 155 642
-56 l31 -55 3 -277 3 -278 144 0 144 0 3 255 3 255 -62 0 -63 0 0 65 0 65
2055 0 2055 0 0 49 c0 117 -46 267 -104 344 -57 75 -149 85 -204 23 -41 -47
-57 -98 -56 -181 1 -71 30 -161 60 -186 8 -6 14 -15 14 -20 0 -5 -83 -9 -185
-9 l-185 0 -30 41 c-48 66 -73 145 -67 208 13 128 142 239 317 271 76 15 247
4 325 -20z m11300 0 c78 -38 109 -142 63 -210 -62 -90 -164 -101 -238 -25 -27
28 -34 44 -37 87 -5 69 19 114 77 145 53 28 82 29 135 3z m2283 -484 c104 -18
197 -61 261 -121 65 -61 85 -113 79 -202 -16 -224 -260 -411 -571 -439 l-78
-7 7 -31 c18 -87 95 -169 192 -207 69 -27 204 -36 282 -20 113 24 227 98 257
168 10 25 13 108 13 363 l0 330 -50 0 -50 0 0 65 0 65 1505 0 1505 0 0 -65 0
-65 -95 0 -95 0 0 -519 0 -519 30 -25 c16 -14 43 -28 60 -32 27 -6 30 -11 30
-44 l0 -36 -287 0 -288 0 -3 35 c-3 34 -1 36 48 53 79 28 80 35 80 361 l0 275
-29 20 c-16 11 -51 30 -77 42 -51 21 -218 69 -244 69 -8 0 6 -20 32 -47 154
-157 138 -401 -35 -560 -199 -183 -546 -156 -713 56 -197 250 -49 609 282 687
53 12 96 15 184 10 211 -11 376 -49 522 -122 37 -19 70 -34 73 -34 3 0 5 74 5
165 l0 165 -695 0 -695 0 0 -516 0 -516 31 -29 c17 -15 45 -31 63 -34 30 -6
33 -10 32 -43 l-1 -37 -285 -2 c-310 -2 -297 -4 -299 53 -1 17 7 23 36 29 20
3 49 19 65 35 l28 28 0 516 0 516 -170 0 -170 0 0 -514 c0 -503 0 -514 21
-539 11 -15 38 -31 60 -37 37 -10 39 -13 39 -50 l0 -39 -287 2 -288 2 0 35 c0
32 3 36 40 48 22 7 50 24 63 38 19 22 22 36 22 116 l0 91 -53 -51 c-106 -99
-248 -150 -448 -159 -110 -5 -135 -3 -195 15 -221 67 -380 261 -401 489 l-6
65 24 -7 c58 -19 100 -25 184 -25 111 0 206 15 265 42 l45 20 -87 18 c-107 22
-196 68 -253 132 -157 175 -59 400 204 467 93 23 175 25 279 7z m-4450 -98
l-3 -63 -97 -3 -98 -3 0 -513 c0 -503 0 -514 21 -539 11 -15 38 -32 60 -38 37
-11 39 -14 39 -51 l0 -38 -287 2 -288 3 -3 36 c-3 35 -1 37 32 43 19 4 48 20
65 35 l31 29 0 295 0 294 -57 31 c-62 32 -191 75 -261 87 l-43 7 46 -47 c26
-25 59 -72 73 -103 24 -50 27 -70 27 -157 0 -94 -2 -105 -34 -170 -142 -289
-557 -344 -786 -104 -31 32 -68 84 -83 116 -24 52 -27 70 -27 163 0 97 2 110
32 173 64 136 195 236 348 267 167 34 525 -29 718 -126 l47 -24 0 165 0 165
-695 0 -695 0 0 -505 c0 -578 -4 -552 80 -582 46 -16 50 -20 50 -49 0 -24 -5
-33 -22 -38 -13 -3 -143 -5 -290 -5 l-268 0 0 39 c0 35 3 39 30 45 17 4 44 18
60 32 l30 25 0 519 0 519 -170 0 -170 0 0 -505 c0 -578 -4 -552 81 -582 48
-17 50 -19 47 -53 l-3 -35 -285 0 -285 0 -3 36 c-3 33 -1 36 36 47 21 6 48 22
60 35 22 23 22 25 20 378 l-3 354 -72 7 c-39 4 -142 23 -230 42 -323 70 -397
68 -467 -14 -49 -59 -33 -165 31 -207 23 -15 59 -19 238 -23 205 -5 211 -6
267 -33 125 -61 184 -191 146 -321 -16 -52 -105 -144 -172 -175 -71 -33 -167
-51 -276 -51 l-94 0 44 -45 c45 -46 114 -85 150 -85 11 0 40 10 65 22 l45 22
26 -25 25 -25 -31 -43 c-55 -75 -147 -121 -245 -121 -133 1 -217 44 -365 186
-119 115 -208 180 -285 210 -43 16 -44 17 -30 43 33 62 37 65 75 43 57 -33
163 -61 277 -72 162 -17 257 2 333 67 42 37 79 100 80 137 0 43 -41 106 -88
133 -45 27 -52 28 -216 30 -221 4 -266 16 -352 95 -80 74 -93 178 -35 271 44
68 124 117 239 147 42 11 219 15 272 6 14 -2 48 -7 75 -11 28 -4 120 -20 205
-36 85 -16 203 -33 263 -37 l107 -7 0 97 0 98 -730 0 -730 0 0 -514 c0 -504 0
-514 21 -540 12 -16 38 -31 65 -37 44 -11 45 -13 42 -48 l-3 -36 -290 0 -290
0 -1 37 c-1 35 1 37 42 47 65 16 84 48 84 137 l0 73 -32 -30 c-126 -116 -381
-147 -563 -69 -72 31 -160 105 -203 170 -165 246 -52 549 244 656 164 60 372
33 502 -66 l52 -40 0 130 0 130 -555 0 -555 0 0 -516 0 -516 30 -28 c16 -15
45 -31 63 -34 30 -6 33 -9 31 -39 -1 -17 -2 -35 -3 -39 0 -4 -130 -6 -288 -5
l-288 2 -1 37 c-1 35 1 37 42 47 25 7 51 22 63 37 21 26 21 36 21 540 l0 514
-100 0 -100 0 0 65 0 65 3175 0 3176 0 -3 -62z m3772 -3 l0 -65 -382 -1 c-344
-1 -377 -2 -322 -14 157 -34 317 -147 364 -258 91 -209 -92 -435 -419 -517
l-44 -12 63 -63 c134 -135 230 -152 332 -57 15 14 29 24 31 21 2 -2 14 -19 27
-37 l23 -34 -54 -54 c-99 -101 -189 -144 -300 -146 -111 -2 -213 58 -349 207
-78 86 -161 155 -224 188 l-55 28 14 37 c7 22 18 36 26 34 108 -27 201 -25
292 4 200 65 305 239 252 419 -13 48 -28 70 -78 120 -117 116 -185 135 -482
135 l-220 0 2 -517 3 -516 22 -24 c12 -13 39 -28 60 -35 35 -10 38 -14 38 -50
l0 -38 -290 0 -290 0 0 38 c0 36 3 40 38 50 21 7 48 22 60 35 21 22 22 33 23
203 2 148 -1 179 -12 177 -8 -1 -32 -7 -54 -12 -62 -16 -137 -13 -209 9 -72
23 -74 26 -55 93 8 31 14 37 27 31 128 -55 215 -56 277 -1 l25 22 0 255 c0
140 0 261 0 268 0 9 -79 12 -362 11 -336 0 -359 -1 -308 -15 149 -39 282 -138
336 -251 39 -82 40 -183 1 -266 -56 -122 -199 -221 -370 -255 l-87 -18 72 -71
c40 -38 87 -77 105 -87 62 -32 198 -13 248 34 21 20 21 20 53 -13 l33 -33 -58
-55 c-69 -65 -112 -93 -185 -118 -85 -29 -145 -34 -213 -16 -94 25 -141 58
-276 196 -113 114 -218 198 -269 214 -17 5 -17 9 -5 43 8 22 18 36 26 34 8 -2
43 -8 79 -14 263 -39 483 109 481 322 -1 152 -80 269 -228 338 -55 26 -67 27
-235 30 l-178 4 0 64 0 64 1590 0 1590 0 0 -65z m-158 -617 c35 1 76 9 104 21
26 12 48 21 49 21 3 0 25 -86 25 -99 0 -19 -104 -45 -180 -45 -70 1 -182 31
-193 52 -2 4 4 26 14 49 l19 41 52 -20 c32 -12 75 -20 110 -20z"/>
<path d="M11590 22974 c-308 -27 -618 -86 -784 -148 -86 -33 -188 -84 -219
-109 l-26 -22 25 -95 c40 -151 165 -519 239 -705 316 -792 676 -1304 1015
-1447 230 -96 401 -43 628 197 225 237 465 665 709 1259 130 317 299 806 289
832 -8 22 -137 81 -243 113 -170 50 -415 93 -668 116 -38 4 -83 9 -100 11 -81
13 -720 11 -865 -2z"/>
<path d="M10100 22730 c-615 -111 -1299 -330 -1678 -536 l-86 -47 69 -65 c78
-72 282 -227 420 -319 511 -340 1261 -708 1947 -957 182 -66 431 -147 436
-141 2 2 -11 23 -31 47 -131 162 -328 510 -472 834 -165 371 -358 949 -390
1167 -9 57 1 56 -215 17z"/>
<path d="M13704 22668 c-31 -111 -170 -518 -229 -673 -184 -481 -407 -937
-588 -1204 -20 -30 -35 -56 -34 -58 2 -1 70 21 153 51 752 270 1462 617 2019
989 129 86 339 245 414 314 l64 59 -64 34 c-322 174 -772 335 -1274 459 -168
41 -404 91 -429 91 -10 0 -21 -22 -32 -62z"/>
<path d="M8025 21996 c-239 -99 -439 -233 -628 -421 -43 -43 -76 -79 -74 -81
1 -2 30 3 62 11 158 36 291 48 530 49 344 1 398 -7 462 -75 70 -74 69 -121 -6
-347 -32 -97 -62 -185 -66 -194 -12 -29 12 -22 150 45 156 77 336 196 463 307
l94 82 -84 50 c-259 156 -558 373 -709 517 -54 50 -101 91 -105 91 -5 0 -45
-15 -89 -34z"/>
<path d="M15637 21955 c-154 -147 -399 -328 -665 -492 l-143 -88 67 -62 c140
-132 342 -267 524 -349 63 -29 116 -52 117 -51 1 1 -27 88 -63 192 -73 217
-79 272 -41 340 37 64 95 93 212 105 234 22 555 6 780 -40 49 -10 91 -17 93
-16 1 2 -49 53 -112 113 -130 124 -256 218 -401 297 -87 48 -266 127 -284 126
-3 -1 -41 -34 -84 -75z"/>
<path d="M7725 21314 c-439 -54 -735 -154 -1025 -344 -92 -61 -222 -162 -216
-168 2 -1 25 2 51 8 26 6 72 13 101 16 128 14 217 -72 208 -201 -1 -22 -5 -94
-8 -160 -12 -265 -79 -595 -166 -814 -11 -28 -18 -51 -15 -51 2 0 28 9 57 20
49 19 57 27 100 99 213 352 539 648 894 811 187 86 170 72 240 205 97 183 238
554 219 573 -7 7 -387 12 -440 6z"/>
<path d="M15699 21312 l-37 -7 42 -125 c66 -193 177 -443 251 -561 6 -9 60
-37 120 -63 364 -153 700 -443 928 -803 67 -107 74 -114 121 -132 28 -10 52
-18 53 -17 2 2 -17 63 -41 137 -87 264 -122 469 -141 822 -9 153 20 218 112
253 40 16 55 16 127 6 44 -7 92 -15 106 -19 17 -4 3 12 -45 52 -267 222 -636
379 -1035 440 -111 17 -497 29 -561 17z"/>
<path d="M9185 21162 c-98 -33 -121 -46 -210 -116 -132 -105 -237 -172 -376
-243 l-114 -58 205 0 c296 0 413 -14 473 -55 50 -35 69 -66 74 -128 4 -49 -1
-75 -42 -190 -25 -73 -68 -182 -95 -242 -26 -61 -47 -110 -45 -110 1 0 54 9
117 20 300 52 589 178 851 371 98 72 337 292 327 301 -3 3 -104 47 -225 99
-121 51 -354 160 -517 241 -163 81 -301 148 -305 148 -4 0 -57 -17 -118 -38z"/>
<path d="M14265 21071 c-265 -135 -423 -208 -649 -301 l-138 -58 78 -77 c327
-324 702 -525 1109 -595 60 -10 111 -17 113 -15 2 2 -19 55 -47 120 -67 152
-141 373 -136 407 20 158 112 192 525 193 l235 0 -105 52 c-128 63 -298 173
-405 262 -70 58 -93 70 -190 103 -60 21 -117 37 -125 36 -8 0 -127 -58 -265
-127z"/>
<path d="M13238 20619 c-19 -10 -498 -172 -593 -200 -65 -19 -95 -35 -160 -86
-158 -125 -310 -179 -475 -169 -127 7 -193 26 -335 95 -94 46 -169 73 -340
121 -187 52 -541 166 -707 227 l-46 17 -114 -115 c-425 -433 -889 -656 -1483
-714 -32 -3 -60 -7 -60 -8 -41 -67 -138 -205 -196 -277 -211 -263 -474 -474
-769 -618 l-136 -65 -28 -76 c-47 -127 -150 -330 -225 -444 -103 -156 -168
-236 -313 -380 -123 -123 -128 -130 -129 -170 -1 -110 -47 -367 -93 -519 -101
-332 -260 -604 -512 -876 l-96 -102 22 -118 c27 -145 38 -465 21 -620 -20
-187 -76 -407 -145 -577 l-24 -59 51 -21 c81 -32 85 -45 88 -280 5 -369 47
-750 124 -1115 72 -343 278 -951 450 -1330 63 -140 67 -174 23 -233 -14 -18
-27 -37 -31 -44 -4 -7 19 -30 60 -59 417 -294 701 -665 848 -1108 l44 -131
123 -50 c471 -194 825 -471 1068 -835 24 -36 44 -66 45 -67 1 -2 30 -5 66 -8
355 -31 590 -85 852 -197 65 -27 120 -48 121 -47 6 7 144 431 190 584 323
1076 599 2464 751 3790 14 121 28 238 30 260 5 40 42 388 50 475 3 25 12 110
20 190 8 80 19 197 25 260 5 63 14 165 20 225 13 141 17 199 30 370 6 77 12
163 15 190 2 28 7 102 11 165 3 63 8 131 10 150 3 19 6 213 8 430 3 331 6 407
21 469 17 74 41 111 73 112 9 0 -12 12 -48 27 -155 65 -258 131 -371 239 -185
177 -303 428 -316 676 l-6 107 617 0 618 0 -59 44 c-151 114 -226 293 -226
541 0 243 75 513 235 845 l70 145 72 -148 c108 -221 186 -446 220 -632 19
-108 15 -358 -8 -439 -38 -133 -129 -267 -225 -328 l-45 -28 624 0 623 0 -6
-97 c-17 -270 -163 -559 -367 -731 -90 -75 -169 -124 -287 -178 -82 -37 -90
-43 -68 -48 63 -16 75 -111 80 -618 2 -233 6 -436 9 -453 2 -16 7 -77 10 -135
11 -185 45 -607 71 -880 27 -285 72 -740 80 -805 3 -22 19 -159 35 -305 174
-1540 484 -3050 866 -4212 l65 -197 67 26 c196 75 409 123 662 148 91 10 165
18 165 19 1 0 14 21 29 46 138 216 375 453 606 607 163 108 352 204 536 272
l61 22 42 129 c79 239 218 491 376 680 126 151 329 334 497 449 l48 32 -35 52
c-47 70 -46 101 11 223 172 368 399 1048 468 1399 29 149 71 422 82 540 4 44
8 82 9 85 1 3 5 68 10 145 4 77 9 156 11 175 1 19 3 101 3 182 1 142 2 147 27
177 16 20 42 35 70 42 43 11 43 11 29 38 -51 100 -131 393 -155 569 -30 224
-14 556 36 757 5 22 -6 38 -85 120 -358 375 -557 817 -611 1352 l-10 102 -101
98 c-243 234 -416 493 -545 813 l-42 105 -149 75 c-274 138 -496 309 -686 527
-87 101 -196 247 -237 319 -24 41 -25 42 -95 48 -302 29 -542 95 -800 221
-253 123 -439 258 -662 480 -88 89 -136 129 -145 124z"/>
<path d="M17215 20502 c27 -433 133 -807 311 -1103 28 -46 40 -58 75 -68 121
-36 384 -167 544 -270 84 -53 254 -181 274 -204 19 -23 41 -21 41 3 0 60 95
452 131 543 13 31 73 87 94 87 22 0 19 12 -31 113 -133 265 -356 511 -624 687
-214 141 -455 239 -734 299 l-88 19 7 -106z"/>
<path d="M6455 20570 c-160 -42 -273 -83 -420 -154 -382 -184 -653 -441 -844
-798 -51 -94 -61 -128 -40 -128 22 0 70 -43 88 -78 28 -58 81 -253 115 -423
l31 -156 80 64 c111 89 260 189 390 261 110 61 305 149 381 172 36 11 47 22
80 79 136 232 229 500 274 791 6 41 13 86 16 100 2 14 6 66 10 115 3 50 7 111
9 138 3 47 3 47 -29 47 -17 -1 -80 -14 -141 -30z"/>
<path d="M8565 20523 c-298 -23 -556 -92 -800 -213 -171 -85 -296 -173 -433
-305 -92 -88 -222 -234 -222 -249 0 -2 49 13 109 34 60 21 173 55 252 74 271
66 366 71 437 23 60 -39 77 -84 75 -196 -2 -115 -28 -331 -54 -465 -11 -54
-18 -100 -16 -103 8 -7 179 98 277 171 123 91 306 274 400 401 139 186 267
420 358 655 63 165 64 156 -1 164 -61 8 -319 14 -382 9z"/>
<path d="M15008 20525 c-2 -1 -39 -5 -82 -9 -43 -3 -82 -8 -85 -11 -8 -9 42
-150 104 -290 58 -131 161 -321 226 -417 121 -178 317 -385 477 -505 84 -64
270 -179 276 -172 2 2 -7 60 -19 129 -26 137 -41 261 -51 415 -5 81 -3 108 10
140 32 76 92 115 178 115 132 -1 477 -85 672 -166 37 -15 -45 87 -174 216
-307 307 -678 483 -1145 541 -82 10 -379 21 -387 14z"/>
<path d="M7705 19683 c-74 -10 -265 -57 -359 -88 -287 -95 -557 -248 -746
-423 l-73 -67 17 -134 c10 -74 20 -212 23 -308 3 -95 8 -173 10 -173 2 0 46
18 99 40 121 50 217 80 258 80 55 -1 112 -34 140 -82 21 -35 29 -70 41 -174 8
-71 15 -150 15 -176 0 -27 4 -48 10 -48 17 0 148 160 222 270 193 289 324 660
372 1055 25 206 27 235 13 234 -6 -1 -25 -4 -42 -6z"/>
<path d="M16084 19633 c3 -32 8 -87 11 -123 30 -341 152 -730 318 -1012 85
-144 269 -380 284 -364 3 2 7 33 9 68 12 166 35 293 60 331 28 43 90 76 143
77 39 0 182 -47 286 -95 l72 -33 6 192 c3 105 13 245 22 311 l17 120 -59 54
c-287 263 -723 466 -1132 525 l-43 7 6 -58z"/>
<path d="M5000 19236 c-438 -252 -782 -660 -920 -1091 -24 -76 -70 -266 -70
-291 0 -1 17 4 37 13 53 22 123 13 168 -21 19 -15 48 -53 64 -84 74 -148 182
-456 221 -634 l13 -58 141 138 c78 75 170 160 204 187 60 46 68 58 132 187
226 456 261 960 109 1553 -17 66 -34 123 -38 126 -3 3 -31 -8 -61 -25z"/>
<path d="M18747 19168 c-70 -252 -97 -440 -97 -698 -1 -356 63 -633 213 -923
46 -89 59 -105 132 -164 44 -37 135 -121 203 -189 68 -68 125 -118 127 -111 2
7 20 74 39 150 61 233 182 535 239 594 17 18 46 38 65 44 34 11 100 8 135 -6
24 -10 22 17 -7 140 -96 394 -315 735 -651 1014 -127 106 -329 241 -360 241
-7 0 -24 -42 -38 -92z"/>
<path d="M6183 19056 c-263 -112 -508 -272 -700 -457 l-73 -70 0 -82 c0 -245
-66 -588 -155 -809 -5 -13 1 -18 29 -23 60 -12 112 -68 151 -164 l34 -85 35
77 c148 325 417 636 735 850 42 28 80 55 84 61 14 18 0 500 -18 626 -9 63 -17
115 -18 117 -1 1 -48 -17 -104 -41z"/>
<path d="M17546 19066 c-3 -17 -8 -49 -11 -71 -17 -105 -31 -345 -29 -485 2
-137 5 -157 21 -168 256 -180 417 -323 546 -482 88 -109 182 -258 243 -384 48
-100 54 -108 62 -85 44 112 58 139 90 172 24 24 53 42 80 49 34 8 42 14 36 27
-4 9 -24 66 -45 128 -67 193 -109 449 -109 656 l0 104 -77 74 c-201 192 -506
385 -750 477 l-52 20 -5 -32z"/>
<path d="M6797 18345 c-124 -48 -305 -143 -421 -220 -383 -255 -657 -621 -769
-1032 -21 -77 -24 -98 -15 -139 6 -27 12 -51 13 -52 2 -2 54 42 117 97 134
120 198 157 260 147 66 -11 104 -41 149 -118 52 -88 145 -293 189 -413 18 -49
36 -94 40 -98 19 -21 210 226 298 383 145 261 220 508 253 825 16 164 3 600
-20 642 -4 8 -31 2 -94 -22z"/>
<path d="M16931 18261 c-7 -65 -12 -204 -12 -307 0 -462 109 -838 343 -1187
64 -96 195 -252 210 -252 6 0 25 41 43 90 73 204 200 460 246 499 63 53 153
54 227 2 20 -14 82 -66 137 -115 63 -57 104 -86 110 -80 5 5 9 42 9 82 0 83
-42 216 -118 381 -167 359 -486 677 -882 878 -88 45 -281 128 -298 128 -2 0
-9 -53 -15 -119z"/>
<path d="M3995 17568 c-422 -336 -713 -845 -751 -1312 -3 -39 -7 -86 -8 -103
-3 -31 0 -34 93 -86 168 -95 370 -201 578 -306 l203 -101 39 78 c84 167 148
374 178 572 16 111 22 395 10 490 -26 194 -56 334 -107 495 -37 115 -129 345
-139 345 -3 0 -46 -33 -96 -72z"/>
<path d="M19731 17618 c-5 -13 -19 -45 -31 -73 -40 -90 -99 -263 -130 -378
-131 -495 -96 -973 104 -1402 26 -54 48 -101 50 -103 6 -5 439 216 683 348
l193 105 0 53 c0 78 -27 243 -60 367 -86 326 -268 625 -541 890 -97 95 -200
181 -247 209 -7 5 -15 -1 -21 -16z"/>
<path d="M5134 17305 c-177 -121 -370 -302 -507 -475 l-67 -84 0 -151 c0 -330
-76 -668 -211 -937 -22 -43 -39 -82 -39 -86 0 -16 644 -291 655 -280 2 2 5 67
6 143 2 216 27 365 95 574 66 202 182 431 297 588 53 71 53 60 2 288 -23 105
-122 424 -143 461 -6 11 -27 1 -88 -41z"/>
<path d="M18592 17283 c-62 -161 -118 -366 -146 -529 l-16 -91 85 -127 c148
-222 253 -466 309 -718 31 -137 43 -245 45 -403 1 -66 4 -121 5 -123 9 -8 627
250 654 273 2 2 -10 30 -27 63 -44 87 -108 251 -137 351 -62 214 -101 521 -88
685 l6 71 -47 62 c-145 193 -418 448 -586 547 l-27 16 -30 -77z"/>
<path d="M5826 16799 c-138 -132 -219 -227 -320 -377 -230 -340 -345 -739
-321 -1112 l7 -107 172 -56 c226 -74 686 -207 716 -207 25 0 115 260 149 425
31 156 40 257 36 430 -5 258 -59 517 -161 778 -39 99 -150 337 -157 337 -3 0
-57 -50 -121 -111z"/>
<path d="M17836 16803 c-167 -339 -251 -654 -263 -978 -10 -288 28 -514 135
-793 l35 -94 34 7 c171 32 858 247 867 271 10 26 7 327 -4 411 -51 382 -234
753 -531 1077 -60 66 -205 196 -217 196 -5 0 -30 -44 -56 -97z"/>
<path d="M12011 16450 c-1 -3 -15 -126 -31 -275 -17 -148 -32 -288 -35 -310
-7 -53 -33 -279 -51 -440 -18 -161 -74 -631 -79 -665 -2 -14 -6 -50 -10 -80
-48 -454 -286 -2301 -396 -3080 -195 -1380 -364 -2316 -482 -2669 l-35 -104
56 -74 c31 -40 61 -72 66 -69 6 2 69 30 140 61 206 90 385 144 601 182 156 27
501 24 662 -5 136 -25 327 -77 424 -117 51 -20 65 -23 75 -13 7 7 44 49 82 92
l68 79 -38 146 c-114 438 -273 1378 -448 2661 -17 124 -42 306 -55 405 -14 99
-43 324 -65 500 -22 176 -42 334 -45 351 -2 17 -18 143 -35 280 -17 137 -39
321 -50 409 -11 88 -22 178 -25 200 -2 22 -16 135 -30 250 -14 116 -27 228
-30 250 -36 304 -46 386 -55 475 -6 58 -13 119 -15 135 -3 25 -17 136 -40 335
-2 19 -24 220 -49 445 -57 512 -74 651 -75 645z"/>
<path d="M3181 15802 c-57 -268 -131 -792 -156 -1112 -9 -121 -25 -392 -25
-434 l0 -39 363 6 c199 3 432 13 517 21 695 66 1310 203 1905 423 118 43 156
63 123 63 -30 0 -443 121 -663 195 -347 115 -650 236 -1015 402 -195 89 -711
350 -894 451 -70 40 -132 72 -136 72 -5 0 -13 -21 -19 -48z"/>
<path d="M20435 15744 c-654 -359 -1383 -678 -1970 -862 -182 -57 -515 -152
-533 -152 -36 0 12 -23 168 -81 454 -167 1056 -311 1570 -374 30 -4 69 -9 85
-11 148 -20 430 -36 728 -41 l358 -6 -6 99 c-13 239 -15 272 -20 329 -29 353
-74 705 -130 1005 -19 102 -35 188 -35 193 0 16 -33 1 -215 -99z"/>
<path d="M6075 14514 c-184 -75 -452 -170 -615 -219 -550 -164 -1185 -278
-1730 -310 -58 -3 -132 -8 -165 -10 -33 -2 -174 -4 -314 -4 l-254 -1 7 -232
c4 -128 9 -255 11 -283 3 -27 10 -117 15 -200 6 -82 13 -163 15 -180 2 -16 7
-60 10 -98 8 -76 -1 -69 122 -87 122 -17 284 -33 508 -49 172 -13 691 -10 890
5 443 33 826 93 1245 195 145 35 540 146 548 154 2 1 -8 51 -22 111 -46 207
-90 461 -111 649 -3 28 -8 64 -10 80 -7 50 -24 283 -30 404 -3 63 -6 115 -8
117 -1 1 -51 -18 -112 -42z"/>
<path d="M17641 14458 c-1 -57 -4 -121 -6 -143 -2 -22 -7 -80 -10 -130 -15
-232 -70 -599 -125 -839 -17 -72 -30 -135 -30 -142 0 -13 262 -92 510 -154
862 -216 1753 -274 2600 -169 96 12 180 25 186 30 11 9 15 43 34 264 19 217
26 335 36 628 l5 167 -28 0 c-96 -2 -690 11 -748 16 -89 7 -360 33 -400 39
-16 2 -82 11 -145 20 -629 87 -1260 260 -1866 511 -7 3 -11 -30 -13 -98z"/>
<path d="M6389 12953 c-147 -205 -439 -486 -744 -715 -540 -404 -1251 -772
-1885 -976 -85 -27 -188 -57 -227 -67 -40 -9 -73 -21 -73 -25 0 -12 104 -285
166 -439 89 -216 237 -548 349 -778 l103 -213 99 41 c947 394 1799 1095 2513
2069 l112 152 -63 146 c-87 206 -157 393 -235 632 -37 113 -70 208 -74 213 -3
4 -22 -14 -41 -40z"/>
<path d="M17366 12878 c-72 -233 -175 -514 -273 -741 -48 -111 -54 -132 -44
-151 24 -44 276 -374 391 -512 573 -685 1199 -1193 1906 -1547 128 -64 303
-143 392 -178 21 -8 27 0 98 149 210 434 367 798 500 1156 25 65 43 120 42
121 -2 2 -57 17 -123 35 -762 202 -1739 725 -2345 1257 -154 135 -355 344
-435 451 -33 45 -63 81 -66 82 -3 0 -22 -55 -43 -122z"/>
<path d="M5855 12794 c-72 -20 -436 -94 -463 -94 -12 0 -22 -5 -22 -10 0 -15
68 -197 89 -238 l16 -32 105 81 c106 83 299 249 334 288 23 25 14 26 -59 5z"/>
<path d="M17990 12729 c95 -91 349 -299 366 -299 24 0 123 258 101 265 -7 2
-52 11 -102 20 -73 13 -231 47 -425 91 -19 4 -4 -15 60 -77z"/>
<path d="M3086 12628 c-3 -13 -5 -117 -3 -233 3 -186 7 -223 31 -329 15 -65
43 -164 63 -220 37 -106 157 -350 197 -400 l23 -30 89 24 c148 38 330 99 507
168 141 55 167 68 168 86 0 12 2 32 5 45 2 12 -13 71 -35 130 -71 195 -110
399 -114 603 l-2 108 -55 0 c-172 2 -535 29 -738 55 -140 18 -129 19 -136 -7z"/>
<path d="M4920 12630 c-198 -24 -541 -49 -669 -50 l-34 0 6 -117 c11 -204 50
-389 119 -558 22 -55 41 -106 41 -113 1 -22 65 7 339 154 194 104 568 332 568
347 0 15 -72 182 -111 259 -59 114 -31 105 -259 78z"/>
<path d="M18688 12608 c-59 -112 -138 -292 -138 -313 0 -7 195 -136 315 -207
132 -78 309 -175 462 -252 l113 -56 24 48 c79 156 138 403 151 635 l7 117 -33
0 c-130 2 -536 33 -717 56 -162 20 -158 21 -184 -28z"/>
<path d="M20560 12630 c-80 -10 -188 -21 -240 -25 -52 -3 -117 -8 -145 -10
-27 -2 -115 -7 -195 -11 -80 -3 -147 -7 -149 -10 -2 -2 -5 -29 -7 -61 -2 -32
-6 -98 -9 -146 -10 -155 -53 -348 -112 -506 -29 -78 -34 -101 -28 -141 l7 -48
131 -52 c211 -84 572 -200 622 -200 16 0 52 55 115 172 101 191 168 398 196
613 14 104 18 341 7 413 -6 37 9 36 -193 12z"/>
<path d="M6839 11632 c-41 -57 -269 -342 -316 -396 -35 -38 -35 -39 -29 -110
39 -433 211 -812 498 -1093 54 -53 74 -66 148 -91 106 -36 243 -93 322 -133
33 -17 62 -28 64 -26 2 2 -1 28 -6 58 -36 186 -48 573 -21 667 26 89 87 136
173 134 l47 -1 -15 42 c-37 100 -169 349 -227 430 -89 123 -204 251 -306 341
-86 76 -220 179 -271 210 -27 15 -27 15 -61 -32z"/>
<path d="M16825 11583 c-234 -175 -442 -407 -566 -631 -43 -77 -139 -291 -139
-309 0 -3 12 -3 26 0 72 13 162 -40 185 -111 32 -97 29 -427 -7 -651 -8 -52
-13 -95 -11 -97 2 -2 55 20 118 50 63 30 168 73 234 97 134 47 162 69 279 209
167 199 280 420 346 675 24 96 35 160 55 340 5 39 1 45 -113 181 -64 78 -151
187 -192 243 -41 55 -77 100 -80 101 -3 0 -64 -44 -135 -97z"/>
<path d="M6105 10789 c-141 -143 -401 -369 -607 -528 -60 -45 -108 -86 -108
-91 0 -4 14 -50 30 -100 28 -86 36 -99 113 -184 111 -121 165 -188 239 -299
34 -51 66 -95 72 -99 6 -4 27 -8 46 -8 105 0 455 -72 609 -125 41 -14 76 -23
79 -21 2 3 -1 28 -7 58 -19 97 -31 246 -31 385 1 182 23 236 114 267 l35 12
-50 70 c-99 136 -199 332 -245 478 -16 50 -33 74 -112 157 -52 55 -97 99 -101
99 -3 0 -38 -32 -76 -71z"/>
<path d="M17563 10774 c-92 -101 -92 -101 -139 -224 -51 -133 -144 -310 -214
-408 -33 -46 -60 -85 -60 -86 0 -2 13 -6 29 -9 46 -10 98 -70 111 -130 14 -67
6 -342 -15 -462 -22 -132 -23 -127 28 -109 144 51 463 119 613 131 l82 6 47
73 c64 101 166 232 263 336 84 90 83 88 138 270 3 11 -23 37 -93 89 -165 124
-388 315 -543 465 -81 79 -152 144 -158 144 -6 0 -46 -39 -89 -86z"/>
<path d="M7694 10343 c-13 -144 13 -423 56 -595 35 -141 70 -238 130 -365 126
-264 292 -467 523 -640 144 -107 206 -138 307 -152 107 -16 302 -62 399 -95
41 -14 76 -24 78 -23 2 2 -19 37 -45 78 -169 256 -309 598 -344 840 -11 73
-11 79 13 125 22 43 66 78 121 96 17 6 -88 135 -192 238 -205 203 -466 366
-775 485 -96 37 -241 85 -258 85 -3 0 -9 -35 -13 -77z"/>
<path d="M15999 10381 c-361 -122 -651 -290 -888 -515 -56 -54 -211 -234 -211
-247 0 -4 17 -14 39 -22 46 -19 86 -64 102 -116 10 -32 8 -55 -10 -137 -61
-279 -196 -596 -347 -811 -24 -35 -41 -63 -39 -63 2 0 39 12 82 26 115 37 295
80 401 94 103 14 156 40 302 149 383 285 628 715 695 1220 19 138 20 461 3
461 -7 0 -65 -18 -129 -39z"/>
<path d="M5040 9947 c-120 -81 -479 -270 -667 -352 -61 -26 -110 -53 -108 -59
135 -446 337 -759 657 -1017 134 -107 133 -107 154 -64 18 39 52 66 103 83 38
13 423 15 554 4 42 -4 77 -6 77 -3 0 2 -20 57 -45 121 -85 224 -149 521 -143
661 2 60 0 70 -32 119 -45 71 -129 179 -204 264 -64 72 -283 266 -301 266 -6
0 -26 -11 -45 -23z"/>
<path d="M18649 9891 c-149 -124 -268 -256 -388 -431 -47 -68 -49 -74 -44
-123 14 -138 -80 -539 -181 -771 -17 -37 -17 -38 1 -31 33 14 557 19 608 6 59
-15 100 -45 116 -85 7 -17 14 -33 15 -35 6 -7 130 88 221 168 168 148 317 345
428 565 62 124 151 366 142 388 -2 7 -42 28 -88 47 -120 49 -463 225 -603 309
-66 40 -122 72 -126 72 -4 0 -49 -36 -101 -79z"/>
<path d="M6751 9716 c4 -214 35 -402 100 -601 173 -528 539 -911 1069 -1120
52 -20 135 -53 183 -72 48 -20 90 -33 92 -31 2 2 -12 47 -31 98 -61 161 -107
353 -108 451 -1 78 1 88 26 121 17 22 45 43 73 53 l44 17 -99 95 c-115 109
-198 209 -282 338 -62 95 -153 275 -184 361 -16 47 -24 55 -98 102 -187 116
-429 216 -694 286 l-93 25 2 -123z"/>
<path d="M17025 9823 c-256 -64 -510 -167 -720 -293 -77 -47 -81 -51 -104
-112 -93 -248 -287 -533 -482 -710 l-79 -71 52 -26 c57 -29 98 -89 98 -145 0
-79 -59 -321 -117 -474 -19 -52 -32 -96 -30 -98 3 -3 33 7 68 21 35 15 96 38
134 52 481 176 824 470 1031 883 131 264 197 527 211 848 l6 132 -24 -1 c-13
-1 -33 -4 -44 -6z"/>
<path d="M9015 9369 c28 -135 105 -351 177 -493 89 -175 215 -352 349 -485 95
-96 254 -221 279 -221 8 0 112 13 230 29 118 17 293 38 388 47 159 17 172 19
166 36 -13 41 -5 108 15 142 12 19 56 56 104 87 45 29 86 56 91 60 13 11 -128
182 -232 281 -157 149 -291 241 -497 339 -185 88 -434 160 -635 184 -30 4 -66
9 -80 11 -14 2 -101 7 -194 11 l-168 6 7 -34z"/>
<path d="M14465 9383 c-692 -73 -1217 -400 -1550 -965 -30 -50 -55 -97 -55
-103 0 -8 25 -13 70 -14 38 -1 77 -4 87 -5 10 -2 72 -7 138 -10 66 -4 127 -9
135 -11 8 -2 51 -6 95 -10 44 -3 91 -8 105 -10 14 -2 52 -7 85 -10 33 -3 155
-17 271 -32 l211 -26 64 49 c149 114 294 271 408 441 111 165 232 438 275 618
10 39 20 78 22 88 5 17 -3 18 -118 16 -67 -2 -177 -9 -243 -16z"/>
<path d="M5834 9269 c-6 -10 18 -165 41 -265 28 -121 96 -310 149 -416 l51
-102 85 -22 c257 -67 518 -195 740 -362 114 -86 326 -304 414 -424 43 -60 82
-108 85 -108 3 0 100 30 214 67 l208 68 -6 34 c-13 71 -21 79 -121 127 -471
224 -810 587 -998 1066 -25 65 -46 124 -46 132 0 42 -422 163 -680 196 -47 6
-95 12 -108 14 -12 2 -25 0 -28 -5z"/>
<path d="M17890 9264 c-8 -1 -62 -10 -120 -19 -147 -23 -352 -77 -473 -125
l-102 -40 -29 -82 c-43 -125 -137 -317 -209 -426 -202 -307 -449 -524 -800
-699 -100 -51 -127 -73 -127 -105 0 -8 79 -39 213 -82 116 -38 217 -70 222
-72 6 -2 37 34 70 79 83 114 279 312 396 402 229 175 471 295 749 369 l85 23
42 82 c88 173 163 424 191 639 l9 62 -51 -1 c-28 -1 -58 -3 -66 -5z"/>
<path d="M11812 8724 c-296 -43 -645 -179 -931 -361 -53 -34 -53 -34 -35 -55
18 -19 26 -20 124 -14 58 4 143 9 190 12 47 2 112 7 145 10 33 2 285 7 560 10
421 5 521 8 634 25 74 10 137 19 142 19 4 0 27 35 50 78 23 42 53 93 66 112
13 19 23 37 23 41 0 20 -265 95 -420 119 -148 23 -403 25 -548 4z"/>
<path d="M8270 8392 c0 -46 66 -272 114 -393 25 -61 46 -112 48 -114 2 -1 91
20 198 46 205 51 557 127 723 156 53 9 97 20 97 23 0 10 -164 94 -260 133
-238 99 -483 149 -827 172 l-93 6 0 -29z"/>
<path d="M15325 8403 c-222 -19 -452 -71 -637 -142 -90 -35 -269 -123 -263
-129 2 -2 89 -20 192 -39 200 -36 599 -120 723 -153 41 -10 78 -16 82 -12 27
27 148 414 148 473 0 23 -16 23 -245 2z"/>
<path d="M5338 8340 l-68 -5 51 -150 c160 -472 447 -833 844 -1063 l75 -44
147 70 c200 96 374 171 583 253 236 94 222 87 214 102 -4 6 -28 39 -53 72
-277 370 -690 626 -1161 719 -175 34 -186 36 -365 42 -88 3 -169 6 -180 7 -11
1 -50 0 -87 -3z"/>
<path d="M18397 8344 c-1 -1 -74 -4 -162 -8 -171 -6 -196 -9 -320 -32 -492
-94 -880 -320 -1179 -688 -31 -39 -53 -73 -49 -76 5 -4 31 -15 58 -25 212 -76
592 -235 857 -358 l77 -36 103 69 c281 187 510 465 660 802 48 106 100 252
113 315 l6 31 -81 4 c-45 2 -82 2 -83 2z"/>
<path d="M11966 8083 c-1 -1 -101 -3 -221 -4 -339 -3 -845 -31 -1145 -64 -815
-88 -1413 -194 -2095 -370 -694 -179 -1409 -434 -1989 -709 l-139 -66 99 -72
c559 -407 1263 -801 1901 -1064 l152 -62 163 65 c521 207 1138 375 1738 472
326 52 559 80 805 97 55 3 102 8 105 9 11 7 464 20 670 20 217 0 594 -11 673
-20 23 -3 123 -12 222 -20 99 -9 191 -18 205 -20 14 -2 48 -7 75 -10 720 -81
1508 -279 2167 -543 l127 -51 128 53 c563 235 1131 537 1610 857 163 109 403
281 403 289 0 7 -33 23 -265 128 -816 369 -1750 657 -2720 841 -511 97 -991
159 -1580 207 -173 13 -561 30 -765 33 -118 2 -239 4 -268 5 -30 0 -55 0 -56
-1z m59 -489 c20 -5 20 -12 17 -262 -3 -252 -3 -258 20 -302 42 -82 129 -101
197 -44 51 43 60 104 61 427 l0 178 88 -3 87 -3 0 -85 c0 -239 -13 -456 -29
-502 -51 -138 -201 -210 -372 -178 -176 33 -240 156 -230 440 2 63 4 166 5
228 l1 112 68 0 c37 0 76 -3 87 -6z m-345 -11 c0 -4 3 -38 6 -75 l7 -68 -84
-1 c-46 -1 -88 -2 -94 -4 -5 -1 -16 -3 -23 -3 -10 -2 -12 -16 -8 -59 3 -32 8
-125 12 -208 4 -82 8 -152 10 -156 1 -3 4 -48 5 -100 l2 -94 -86 -5 -86 -5 -5
70 c-6 76 -12 187 -22 395 -4 74 -9 139 -12 144 -2 5 -49 6 -103 3 -88 -5 -99
-4 -99 11 -1 9 -3 43 -7 75 l-5 57 28 1 c16 0 119 6 229 13 277 16 335 18 335
9z m1475 -48 c55 -4 103 -9 108 -12 10 -6 9 -115 -2 -132 -7 -11 -29 -12 -108
-7 l-99 7 -13 -143 c-31 -370 -40 -461 -45 -466 -3 -2 -43 -1 -88 4 -70 8 -83
12 -82 27 1 10 5 57 8 105 4 48 9 105 11 127 10 91 14 134 20 220 3 50 8 102
11 117 5 26 5 26 -73 33 -136 11 -131 8 -126 68 8 104 -14 95 195 76 101 -10
228 -21 283 -24z m-2224 -150 c45 -415 52 -495 53 -550 l1 -60 -79 -8 c-43 -4
-80 -6 -82 -4 -5 5 -19 122 -39 317 -23 223 -23 225 -35 333 -6 55 -9 102 -5
105 4 4 34 10 68 13 110 11 100 24 118 -146z m-355 45 c11 -81 21 -73 -108
-90 -49 -7 -88 -13 -88 -14 0 -1 20 -134 45 -296 25 -162 45 -299 45 -306 0
-12 -157 -37 -172 -28 -5 3 -8 15 -8 27 0 12 -11 94 -25 182 -13 88 -32 212
-41 275 -10 63 -18 116 -20 118 -1 2 -46 -4 -99 -13 -54 -8 -99 -14 -101 -12
-4 4 -25 139 -22 142 2 2 84 15 183 29 99 15 216 33 260 40 44 8 94 14 111 15
30 1 30 1 40 -69z m2994 51 c36 -6 130 -20 210 -32 80 -12 146 -22 146 -23 1
-1 -4 -32 -10 -71 -9 -51 -16 -69 -26 -68 -59 8 -239 35 -256 38 -20 4 -23 -1
-33 -72 -6 -42 -10 -77 -9 -78 2 -1 55 -10 118 -19 174 -26 158 -16 146 -94
-5 -37 -10 -68 -11 -70 -1 -1 -61 7 -134 18 -73 11 -136 18 -140 16 -5 -3 -11
-29 -14 -59 -4 -29 -10 -67 -13 -85 -6 -30 -5 -32 21 -32 28 0 277 -39 283
-45 2 -1 -2 -33 -9 -70 l-11 -67 -47 6 c-25 3 -75 10 -111 16 -36 5 -123 18
-193 29 -71 11 -130 21 -132 23 -1 2 4 41 11 88 15 90 41 259 74 480 29 194
28 191 53 186 12 -3 51 -10 87 -15z m-3767 -133 c-2 -5 -3 -36 -3 -70 l0 -63
-87 0 c-100 0 -151 -21 -168 -69 -18 -53 16 -77 146 -102 138 -26 195 -57 230
-126 95 -186 -75 -368 -341 -368 -110 0 -110 1 -110 85 l0 73 83 -5 c138 -9
222 30 215 99 -4 44 -40 67 -134 83 -145 26 -204 56 -245 128 -31 55 -32 135
-1 194 42 80 143 137 267 151 66 8 151 1 148 -10z m5071 -128 c151 -50 248
-204 230 -367 -26 -238 -173 -393 -373 -393 -172 0 -305 88 -356 235 -32 95
-17 244 37 349 24 47 99 129 143 156 81 50 205 58 319 20z m-5765 -32 c5 -18
53 -177 106 -353 53 -176 98 -326 100 -332 3 -8 -26 -22 -81 -38 l-85 -26 -47
39 c-26 22 -127 121 -224 220 -98 100 -178 179 -178 176 0 -2 7 -21 15 -42 18
-42 145 -454 145 -470 0 -12 -139 -56 -148 -47 -12 12 -221 720 -214 726 4 4
47 18 96 33 l88 26 111 -103 c60 -56 155 -149 210 -207 55 -58 96 -96 92 -85
-25 66 -88 257 -118 357 l-35 117 62 19 c86 28 93 27 105 -10z m6526 -225
c110 -41 201 -76 202 -77 2 -1 -9 -32 -23 -69 l-26 -66 -76 28 c-42 16 -102
38 -132 50 -30 12 -58 21 -61 21 -12 0 -62 -151 -53 -159 5 -4 62 -27 127 -51
64 -24 117 -44 117 -46 0 -2 -8 -25 -18 -51 -11 -26 -22 -56 -25 -65 -5 -15
-10 -15 -59 4 -29 11 -87 33 -129 48 l-77 29 -53 -144 -53 -143 -80 30 c-44
16 -82 30 -83 31 -2 2 186 508 256 691 9 21 16 26 29 21 9 -4 107 -40 217 -82z
m-7240 -376 c75 -192 135 -350 133 -351 -17 -12 -159 -63 -162 -58 -14 25
-277 705 -273 708 12 12 153 61 159 56 3 -4 68 -164 143 -355z"/>
<path d="M14723 7099 c-74 -15 -131 -83 -165 -192 -40 -133 -11 -244 76 -286
81 -40 154 -20 213 58 40 52 73 155 73 230 0 126 -90 213 -197 190z"/>
<path d="M6009 6796 c-2 -2 -72 -6 -155 -10 -84 -4 -171 -9 -195 -11 -24 -3
-102 -9 -174 -15 -189 -15 -203 -17 -515 -50 -299 -32 -355 -39 -750 -95
-1084 -153 -2226 -394 -3199 -676 -83 -24 -110 -36 -99 -42 8 -5 248 -92 534
-192 372 -131 518 -186 516 -196 -2 -8 -84 -245 -183 -528 -99 -283 -178 -515
-177 -517 2 -1 75 20 163 47 940 292 2292 568 3405 695 25 3 59 7 75 9 17 2
62 7 100 10 39 4 81 8 95 10 53 9 502 44 650 52 369 19 1354 6 1690 -22 30 -3
114 -9 185 -15 72 -6 146 -13 165 -15 19 -2 105 -12 190 -20 85 -9 166 -18
180 -20 14 -2 45 -6 70 -9 121 -15 287 -38 393 -54 64 -10 117 -17 117 -15 0
6 -606 305 -674 333 -778 309 -1563 751 -2238 1262 -103 78 -150 101 -169 84z
m116 -398 c2 -7 21 -169 43 -360 l38 -346 -26 -5 c-14 -2 -54 -5 -90 -6 l-65
-2 -135 190 c-74 105 -152 219 -174 253 l-38 63 6 -50 c14 -104 44 -352 51
-412 l7 -63 -54 -1 c-29 0 -65 -3 -79 -5 -25 -4 -26 -2 -32 48 -20 182 -68
609 -73 641 l-5 37 38 1 c21 0 66 2 100 5 l61 5 40 -53 c97 -130 214 -298 248
-356 20 -34 38 -61 40 -59 2 2 -1 28 -6 58 -13 71 -50 366 -50 400 0 26 1 26
75 28 54 2 76 -2 80 -11z m-867 -409 c101 -188 181 -343 180 -344 -4 -4 -181
-25 -184 -22 -1 1 -20 39 -43 85 l-41 82 -43 -1 c-23 -1 -71 -6 -107 -13 l-65
-11 -8 -90 c-5 -49 -11 -92 -13 -94 -7 -8 -165 -27 -169 -20 -3 3 9 116 26
250 16 134 36 297 44 363 8 65 17 121 20 124 7 8 139 30 186 31 l35 1 182
-341z m-789 214 c32 -125 142 -655 138 -666 -4 -11 -155 -44 -161 -35 -1 2
-35 156 -76 343 -40 187 -75 347 -77 356 -4 13 8 18 59 26 107 17 106 17 117
-24z m-503 -94 c57 -18 77 -31 129 -82 50 -51 66 -74 83 -127 29 -89 36 -169
22 -233 -38 -162 -160 -246 -419 -289 -71 -12 -135 -19 -143 -16 -9 4 -39 116
-91 344 -43 187 -77 344 -77 350 0 11 90 36 220 63 84 17 203 13 276 -10z
m-656 -296 c29 -120 67 -279 85 -353 18 -74 32 -136 31 -137 -1 -2 -40 -10
-87 -19 l-84 -16 -88 94 c-90 95 -237 262 -294 333 l-32 40 20 -70 c24 -84
109 -431 109 -443 0 -12 -140 -36 -150 -26 -4 5 -20 61 -35 124 -15 63 -51
216 -81 339 -30 123 -53 229 -51 235 2 6 45 18 96 27 l93 16 135 -146 c75 -80
161 -178 191 -218 31 -40 58 -71 59 -69 2 1 -6 29 -17 62 -22 62 -112 415
-108 419 4 4 109 22 134 24 19 1 25 -17 74 -216z m-784 -273 c46 -184 84 -344
86 -355 3 -17 -6 -21 -67 -32 -38 -8 -76 -12 -84 -11 -10 2 -41 107 -102 353
-48 192 -86 351 -85 353 5 5 141 30 155 28 10 -1 39 -100 97 -336z"/>
<path d="M4980 6160 c-1 -14 -3 -32 -4 -40 -2 -8 -6 -62 -10 -119 l-7 -104 68
7 c37 4 71 10 75 14 4 4 -22 66 -57 137 -44 90 -64 122 -65 105z"/>
<path d="M3702 5988 c-33 -7 -42 -13 -38 -26 2 -9 23 -98 46 -197 65 -284 54
-256 103 -249 104 16 190 79 201 146 12 71 12 95 1 143 -36 157 -146 221 -313
183z"/>
<path d="M17890 6758 c-611 -478 -1389 -927 -2190 -1263 -184 -77 -823 -389
-780 -381 22 4 340 50 425 61 17 2 64 9 105 14 126 17 445 50 640 66 441 35
586 40 1170 40 613 0 685 -3 1190 -50 1238 -116 2747 -410 3814 -744 71 -23
131 -40 132 -38 1 1 -81 238 -182 527 -101 288 -180 528 -176 531 4 4 241 89
527 189 286 100 523 185 528 189 14 13 -567 173 -1017 281 -954 227 -1946 404
-2891 514 -115 14 -237 27 -270 30 -145 14 -284 27 -330 31 -91 9 -299 24
-410 30 -60 3 -137 8 -170 11 -59 5 -61 4 -115 -38z m61 -418 c29 -6 57 -14
62 -19 9 -9 -17 -107 -32 -123 -3 -4 -30 -1 -59 6 -65 18 -137 14 -180 -8 -27
-14 -32 -22 -32 -51 0 -40 7 -44 138 -95 126 -48 182 -106 182 -188 0 -128
-101 -219 -265 -240 -113 -15 -283 13 -271 44 3 8 13 40 22 70 13 45 19 54 32
48 10 -4 49 -14 87 -22 87 -19 158 -10 191 23 52 52 19 96 -101 139 -104 37
-162 77 -186 130 -34 75 -18 140 51 208 79 77 214 106 361 78z m764 -15 c33
-9 61 -17 62 -19 4 -4 -38 -108 -48 -120 -4 -5 -22 -3 -41 3 -139 49 -286 3
-342 -108 -70 -138 -22 -287 104 -321 47 -13 140 -15 195 -4 l32 6 7 -62 c4
-34 5 -64 3 -66 -9 -10 -116 -24 -176 -24 -73 0 -175 21 -222 46 -47 24 -108
84 -130 126 -87 170 0 416 179 507 99 50 261 66 377 36z m361 -34 c9 -5 -56
-399 -107 -645 l-12 -59 -81 7 c-45 4 -84 10 -87 14 -3 4 13 108 37 232 23
124 52 280 64 347 l22 123 77 -7 c42 -3 81 -8 87 -12z m432 -46 c113 -14 206
-26 207 -28 1 -1 -5 -30 -13 -64 -16 -73 -1 -69 -179 -48 -69 9 -127 15 -128
13 -1 -2 -9 -33 -18 -69 l-15 -67 27 -5 c14 -3 73 -11 131 -17 58 -7 108 -15
113 -19 7 -7 -11 -110 -22 -122 -3 -3 -49 0 -101 7 -52 7 -114 13 -136 13
l-41 1 -16 -77 c-8 -43 -14 -79 -14 -79 1 -1 70 -10 152 -20 83 -9 151 -18
152 -19 5 -3 -20 -120 -26 -127 -5 -6 -130 8 -393 43 -49 7 -88 15 -88 19 0 3
18 91 40 196 23 104 55 254 72 334 17 80 32 148 35 153 7 11 40 9 261 -18z
m507 -64 l40 -7 58 -164 c32 -91 69 -205 82 -255 25 -97 28 -96 45 10 13 84
75 363 82 370 5 5 147 -11 153 -17 3 -3 -138 -638 -151 -682 -5 -16 -13 -18
-68 -11 -114 12 -114 12 -134 69 -44 118 -131 385 -142 439 -7 31 -15 56 -17
54 -2 -2 -8 -30 -14 -63 -20 -113 -91 -429 -98 -437 -8 -8 -139 7 -149 17 -6
6 -1 27 63 311 24 105 53 234 65 288 l22 99 62 -7 c33 -4 79 -10 101 -14z
m1060 -157 c49 -13 109 -37 124 -50 2 -1 -14 -30 -34 -64 -36 -59 -38 -60 -60
-46 -12 8 -48 22 -80 31 -177 52 -335 -64 -336 -245 -1 -127 77 -194 242 -206
l85 -7 -3 -51 c-6 -78 -4 -76 -90 -76 -186 1 -341 76 -397 195 -10 21 -21 66
-24 100 -9 115 28 221 109 309 111 121 271 159 464 110z m509 -134 c115 -33
211 -61 213 -63 4 -4 -37 -108 -47 -119 -3 -5 -66 10 -140 32 -74 21 -138 36
-141 32 -10 -11 -50 -124 -46 -129 3 -2 60 -20 128 -40 68 -19 125 -37 127
-38 4 -3 -38 -108 -47 -117 -4 -5 -62 8 -128 27 -67 19 -126 35 -131 35 -9 0
-68 -148 -61 -154 2 -1 63 -19 134 -40 72 -20 135 -39 142 -41 9 -3 6 -21 -12
-67 -13 -35 -27 -62 -32 -62 -13 2 -448 127 -451 130 -9 6 263 682 272 678 6
-2 105 -31 220 -64z"/>
<path d="M1420 2590 c-18 -18 -20 -33 -20 -178 0 -168 8 -202 50 -202 42 0 50
34 50 202 0 145 -2 160 -20 178 -11 11 -24 20 -30 20 -5 0 -19 -9 -30 -20z"/>
<path d="M7349 2410 c85 -31 151 -87 171 -147 25 -73 -44 -182 -152 -236 -60
-31 -189 -65 -263 -69 l-50 -4 1 -49 c4 -113 91 -248 191 -295 126 -59 292 -6
378 120 l30 45 3 328 3 327 -183 0 -183 -1 54 -19z"/>
<path d="M1364 1786 c-29 -29 -34 -41 -34 -79 0 -51 25 -90 67 -105 66 -22
103 31 103 148 l0 70 -51 0 c-45 0 -55 -4 -85 -34z"/>
<path d="M19432 2500 c-18 -4 -44 -18 -58 -31 -23 -22 -24 -26 -24 -174 0
-144 1 -153 23 -172 50 -47 152 -48 198 -2 17 17 19 34 19 170 0 83 -4 158
-10 168 -9 18 -79 52 -103 50 -6 -1 -27 -5 -45 -9z"/>
<path d="M21702 2135 c-36 -46 -47 -118 -47 -320 0 -152 3 -201 17 -246 30
-97 72 -112 104 -36 34 83 34 489 1 570 -9 19 -24 40 -35 46 -17 9 -24 7 -40
-14z"/>
<path d="M10158 2149 c-213 -33 -293 -349 -130 -514 93 -95 223 -100 347 -15
l45 31 0 204 0 203 -32 28 c-66 55 -143 76 -230 63z"/>
<path d="M13879 2104 c-50 -113 -49 -469 2 -571 13 -26 29 -49 36 -51 22 -6
51 35 63 89 29 134 21 460 -14 544 -12 27 -21 35 -41 35 -21 0 -30 -8 -46 -46z"/>
</g>
</svg>
